#!OML:ASF F:\VICON\USERDATA\INSTALL\rory3\rory3.ASF
:FULLY-SPECIFIED
:DEGREES
2803
root 0.173951 14.4163 -10.6533 -544.16 -26.258 537.529
lowerback 21.4209 -1.24844 -8.10923
upperback -1.42261 -3.62541 1.60555
thorax -13.1025 -1.04346 7.64284
lowerneck -13.3627 -6.54639 -4.42905
upperneck 20.3045 -9.81144 4.6716
head 9.0188 -4.69963 1.10572
rclavicle -1.03884e-013 6.36111e-015
rhumerus 60.1329 57.3393 -26.9095
rradius 83.1007
rwrist 0.346192
rhand -2.2712 26.4703
rfingers 7.12502
rthumb 23.4133 -2.12534
lclavicle -1.03884e-013 6.36111e-015
lhumerus -13.05 -68.078 91.088
lradius 50.426
lwrist 78.3681
lhand 3.66883 30.0515
lfingers 7.12502
lthumb 29.0995 57.7981
rfemur -41.8535 -2.65998 4.36277
rtibia 44.0841
rfoot 5.13964 -10.8177
rtoes -29.8063
lfemur -25.3694 40.3538 -33.8125
ltibia 62.6795
lfoot -42.1597 14.4603
ltoes 16.6832
2804
root 0.169014 14.4147 -10.6491 -544.27 -26.1615 537.654
lowerback 21.6246 -1.27095 -8.03036
upperback -1.54757 -3.65048 1.63082
thorax -13.3651 -1.0352 7.65569
lowerneck -13.1141 -6.51804 -4.36229
upperneck 20.3524 -9.79217 4.5589
head 8.97878 -4.70895 1.06727
rclavicle -2.81715e-014 -2.38542e-015
rhumerus 59.7423 57.5967 -27.3173
rradius 83.1892
rwrist 0.410657
rhand -2.64521 25.942
rfingers 7.12502
rthumb 23.0544 -2.69895
lclavicle -2.81715e-014 -2.38542e-015
lhumerus -13.6418 -68.3277 91.5863
lradius 50.6911
lwrist 79.0232
lhand 3.16366 29.7162
lfingers 7.12502
lthumb 28.6169 57.5451
rfemur -41.8198 -2.54931 4.47075
rtibia 44.0622
rfoot 5.05403 -10.9939
rtoes -28.9074
lfemur -25.3364 40.3407 -33.6536
ltibia 62.7584
lfoot -42.2467 14.282
ltoes 17.1278
2805
root 0.166618 14.4108 -10.6542 -544.368 -26.0314 537.76
lowerback 21.7555 -1.23674 -7.91882
upperback -1.64342 -3.5866 1.63809
thorax -13.5716 -0.994884 7.59491
lowerneck -12.9952 -6.55947 -4.45284
upperneck 20.4063 -9.85604 4.57989
head 8.98449 -4.74959 1.08347
rclavicle -3.51756e-014 -6.75868e-015
rhumerus 58.9712 57.7618 -27.9909
rradius 83.3115
rwrist 0.546639
rhand -2.22172 25.8434
rfingers 7.12502
rthumb 23.4607 -2.74625
lclavicle -3.51756e-014 -6.75868e-015
lhumerus -14.3638 -68.3618 92.2872
lradius 50.8641
lwrist 79.207
lhand 2.97335 29.6231
lfingers 7.12502
lthumb 28.4351 57.4826
rfemur -41.8212 -2.36206 4.58008
rtibia 44.0966
rfoot 5.02798 -11.1899
rtoes -28.1902
lfemur -25.2932 40.4542 -33.5025
ltibia 62.7854
lfoot -42.22 14.4742
ltoes 16.7523
2806
root 0.159807 14.4082 -10.6683 -544.411 -25.911 537.629
lowerback 21.7703 -1.18482 -8.06351
upperback -1.70059 -3.5632 1.59516
thorax -13.6477 -0.967232 7.62531
lowerneck -12.8655 -6.55637 -4.4684
upperneck 20.4431 -9.86471 4.56763
head 8.97381 -4.76269 1.08437
rclavicle -6.11325e-014 -1.15295e-014
rhumerus 58.5113 57.9098 -28.3388
rradius 83.4398
rwrist 0.724933
rhand -2.12642 25.9062
rfingers 7.12502
rthumb 23.5521 -2.67171
lclavicle -6.11325e-014 -1.15295e-014
lhumerus -15.1774 -68.336 93.0486
lradius 50.9675
lwrist 79.2497
lhand 2.92697 29.4603
lfingers 7.12502
lthumb 28.3908 57.3272
rfemur -41.7987 -2.39685 4.50574
rtibia 44.213
rfoot 5.03556 -11.1487
rtoes -27.8757
lfemur -25.0302 40.62 -33.4875
ltibia 62.6921
lfoot -42.1172 14.7432
ltoes 15.3535
2807
root 0.142682 14.4055 -10.6705 -544.314 -25.959 537.297
lowerback 21.7071 -1.22917 -8.22062
upperback -1.7095 -3.67177 1.49445
thorax -13.5999 -1.01309 7.62808
lowerneck -12.6685 -6.54033 -4.53353
upperneck 20.3568 -9.84339 4.6081
head 8.91251 -4.76058 1.11909
rclavicle 5.43738e-014 6.75868e-015
rhumerus 58.3973 57.9943 -28.3588
rradius 83.6812
rwrist 0.697122
rhand -2.38167 25.6015
rfingers 7.12502
rthumb 23.3073 -3.00766
lclavicle 5.43738e-014 6.75868e-015
lhumerus -15.4354 -68.1069 93.3027
lradius 50.9576
lwrist 79.0332
lhand 3.2492 29.4419
lfingers 7.12502
lthumb 28.6987 57.2571
rfemur -41.7987 -2.91896 4.23876
rtibia 44.3595
rfoot 5.24547 -10.7289
rtoes -28.5304
lfemur -24.7299 40.6296 -33.762
ltibia 62.5314
lfoot -42.2242 14.6949
ltoes 14.8036
2808
root 0.128201 14.4025 -10.6683 -544.213 -25.8976 537.049
lowerback 21.6395 -1.24918 -8.34798
upperback -1.6905 -3.73304 1.44085
thorax -13.5235 -1.04069 7.652
lowerneck -12.731 -6.53546 -4.59006
upperneck 20.3567 -9.82628 4.63963
head 8.9278 -4.75109 1.13862
rclavicle -1.00883e-014 8.34896e-015
rhumerus 58.5435 57.9624 -28.126
rradius 83.9558
rwrist 0.615382
rhand -2.62449 25.4689
rfingers 7.12502
rthumb 23.0743 -3.16954
lclavicle -1.00883e-014 8.34896e-015
lhumerus -15.2558 -67.9416 93.1563
lradius 51.0012
lwrist 78.9642
lhand 3.3468 29.5364
lfingers 7.12502
lthumb 28.7919 57.3358
rfemur -41.885 -3.23774 4.04812
rtibia 44.4964
rfoot 5.39741 -10.3931
rtoes -28.9179
lfemur -24.567 40.6847 -34.0143
ltibia 62.3841
lfoot -42.4136 14.5123
ltoes 15.5762
2809
root 0.127068 14.3995 -10.666 -544.228 -25.7187 537.084
lowerback 21.7081 -1.2192 -8.38456
upperback -1.72525 -3.70558 1.47277
thorax -13.6055 -1.01618 7.70862
lowerneck -12.8643 -6.52519 -4.64992
upperneck 20.5108 -9.8185 4.66596
head 9.00944 -4.74688 1.15064
rclavicle 3.75051e-014 1.59028e-014
rhumerus 58.492 57.9753 -28.0894
rradius 84.1866
rwrist 0.552184
rhand -2.58515 25.7135
rfingers 7.12502
rthumb 23.1121 -2.92021
lclavicle 3.75051e-014 1.59028e-014
lhumerus -15.3385 -67.9625 93.2397
lradius 51.127
lwrist 79.2541
lhand 3.42373 29.769
lfingers 7.12502
lthumb 28.8654 57.5558
rfemur -42.0049 -3.1124 4.13473
rtibia 44.5746
rfoot 5.43623 -10.4688
rtoes -28.9122
lfemur -24.6313 40.8307 -34.0003
ltibia 62.3742
lfoot -42.3261 14.7217
ltoes 15.3011
2810
root 0.121183 14.3953 -10.6568 -544.153 -25.721 536.994
lowerback 21.7641 -1.26355 -8.36938
upperback -1.83588 -3.77324 1.42557
thorax -13.7606 -1.03426 7.67553
lowerneck -12.5333 -6.50379 -4.70785
upperneck 20.4323 -9.81296 4.72788
head 8.92761 -4.75609 1.19354
rclavicle -4.86091e-016 2.14687e-014
rhumerus 58.2452 58.0546 -28.2481
rradius 84.4101
rwrist 0.457678
rhand -2.59282 25.6489
rfingers 7.12502
rthumb 23.1047 -2.98578
lclavicle -4.86091e-016 2.14687e-014
lhumerus -15.7477 -67.5187 93.6885
lradius 51.1071
lwrist 78.7864
lhand 3.91733 30.6533
lfingers 7.12502
lthumb 29.3368 58.3587
rfemur -42.1187 -3.23229 4.03299
rtibia 44.653
rfoot 5.58689 -10.3749
rtoes -29.529
lfemur -24.7175 40.755 -34.2072
ltibia 62.3699
lfoot -42.2943 14.8427
ltoes 15.3894
2811
root 0.116881 14.3876 -10.6486 -544.084 -25.7629 537.003
lowerback 21.7609 -1.33697 -8.28615
upperback -2.00059 -3.85062 1.41837
thorax -13.9451 -1.05529 7.65108
lowerneck -11.9807 -6.45291 -4.7591
upperneck 20.3266 -9.76802 4.71945
head 8.7896 -4.76201 1.22477
rclavicle 8.93063e-014 -1.03368e-014
rhumerus 57.9125 58.2884 -28.4529
rradius 84.6228
rwrist 0.456556
rhand -2.62866 25.3877
rfingers 7.12502
rthumb 23.0703 -3.25127
lclavicle 8.93063e-014 -1.03368e-014
lhumerus -16.3916 -66.9602 94.3404
lradius 51.0448
lwrist 78.0121
lhand 4.61193 31.3012
lfingers 7.12502
lthumb 29.9998 58.8885
rfemur -42.2359 -3.40966 4.03678
rtibia 44.6976
rfoot 5.78802 -10.306
rtoes -30.1351
lfemur -24.9171 40.5978 -34.3701
ltibia 62.4432
lfoot -42.3174 15.0624
ltoes 14.9046
2812
root 0.11567 14.3834 -10.6474 -543.986 -25.74 536.884
lowerback 21.6775 -1.36621 -8.50441
upperback -2.06376 -3.93789 1.43866
thorax -13.9411 -1.07416 7.82389
lowerneck -11.6803 -6.40887 -4.75361
upperneck 20.2019 -9.70415 4.66234
head 8.68523 -4.74778 1.22501
rclavicle -7.96482e-014 -1.63003e-014
rhumerus 57.79 58.4374 -28.5681
rradius 84.7246
rwrist 0.599707
rhand -2.64419 25.5044
rfingers 7.12502
rthumb 23.0554 -3.13641
lclavicle -7.96482e-014 -1.63003e-014
lhumerus -16.7524 -66.6049 94.6937
lradius 51.108
lwrist 77.9455
lhand 4.80515 31.4119
lfingers 7.12502
lthumb 30.1841 58.9656
rfemur -42.3956 -3.5148 3.94519
rtibia 44.7959
rfoot 5.9175 -10.2143
rtoes -30.5253
lfemur -25.0108 40.5502 -34.5503
ltibia 62.4517
lfoot -42.4139 14.842
ltoes 15.4955
2813
root 0.112234 14.3826 -10.6514 -544.029 -25.6646 536.899
lowerback 21.6144 -1.37908 -8.61268
upperback -1.9499 -3.97128 1.47534
thorax -13.7532 -1.09841 7.92813
lowerneck -11.9771 -6.4185 -4.70627
upperneck 20.2465 -9.70818 4.67018
head 8.75305 -4.73407 1.2088
rclavicle 9.82625e-015 -5.96354e-015
rhumerus 57.9641 58.304 -28.4386
rradius 84.8844
rwrist 0.689818
rhand -2.59111 25.6672
rfingers 7.12502
rthumb 23.1063 -2.96725
lclavicle 9.82625e-015 -5.96354e-015
lhumerus -16.3079 -66.6647 94.2236
lradius 51.2348
lwrist 78.1692
lhand 4.61736 31.1927
lfingers 7.12502
lthumb 30.0049 58.7791
rfemur -42.406 -3.42682 3.94215
rtibia 44.8478
rfoot 5.67776 -10.4903
rtoes -29.1747
lfemur -24.9207 40.6176 -34.4736
ltibia 62.4398
lfoot -42.457 14.6022
ltoes 16.1079
2814
root 0.10719 14.3812 -10.6568 -543.962 -25.6388 536.639
lowerback 21.633 -1.35889 -8.90753
upperback -1.81495 -4.0301 1.42944
thorax -13.5785 -1.12504 8.05678
lowerneck -12.5588 -6.47976 -4.66429
upperneck 20.3796 -9.76245 4.65129
head 8.9051 -4.7358 1.16736
rclavicle 2.82616e-014 7.55382e-015
rhumerus 58.1856 58.0673 -28.2231
rradius 85.1712
rwrist 0.621068
rhand -2.5237 25.5907
rfingers 7.12502
rthumb 23.171 -3.0357
lclavicle 2.82616e-014 7.55382e-015
lhumerus -15.5502 -66.9715 93.5075
lradius 51.4326
lwrist 78.6747
lhand 4.31299 30.8687
lfingers 7.12502
lthumb 29.7145 58.5073
rfemur -42.4193 -3.55145 3.70949
rtibia 44.9236
rfoot 5.59239 -10.4214
rtoes -29.6374
lfemur -24.7592 40.678 -34.6761
ltibia 62.3445
lfoot -42.4436 14.7283
ltoes 15.7251
2815
root 0.0999312 14.382 -10.6557 -544.005 -25.6024 536.649
lowerback 21.6679 -1.3802 -8.86553
upperback -1.72896 -4.05002 1.43067
thorax -13.4952 -1.14805 8.03835
lowerneck -12.8598 -6.51126 -4.66401
upperneck 20.4176 -9.77277 4.61454
head 8.97206 -4.73143 1.14315
rclavicle -8.87263e-014 -2.38542e-015
rhumerus 58.294 57.9027 -28.0802
rradius 85.3809
rwrist 0.594666
rhand -2.52341 25.459
rfingers 7.12502
rthumb 23.1713 -3.16736
lclavicle -8.87263e-014 -2.38542e-015
lhumerus -15.146 -66.9642 93.1767
lradius 51.651
lwrist 78.9953
lhand 4.00568 30.7384
lfingers 7.12502
lthumb 29.4211 58.429
rfemur -42.3834 -3.7129 3.77403
rtibia 44.9388
rfoot 5.78335 -10.2628
rtoes -30.5509
lfemur -24.6489 40.7689 -34.6393
ltibia 62.2792
lfoot -42.3665 14.8405
ltoes 15.2828
2816
root 0.0957041 14.3808 -10.6505 -544.01 -25.6054 536.672
lowerback 21.7153 -1.43502 -8.82534
upperback -1.74021 -4.11498 1.44771
thorax -13.524 -1.17729 8.059
lowerneck -12.7593 -6.51729 -4.66702
upperneck 20.3327 -9.74858 4.50533
head 8.91741 -4.73293 1.11528
rclavicle -4.84134e-014 -1.63003e-014
rhumerus 58.2588 57.9548 -28.0553
rradius 85.5946
rwrist 0.615059
rhand -2.61516 25.2123
rfingers 7.12502
rthumb 23.0833 -3.42503
lclavicle -4.84134e-014 -1.63003e-014
lhumerus -15.0866 -66.8908 93.1195
lradius 51.7751
lwrist 79.0478
lhand 4.0014 30.7271
lfingers 7.12502
lthumb 29.417 58.4184
rfemur -42.4056 -3.83047 3.8053
rtibia 44.9573
rfoot 5.82843 -10.3393
rtoes -30.2652
lfemur -24.6556 40.7556 -34.6564
ltibia 62.2574
lfoot -42.4219 14.8433
ltoes 15.2792
2817
root 0.0880222 14.38 -10.6484 -543.988 -25.633 536.702
lowerback 21.7499 -1.5052 -8.72582
upperback -1.77678 -4.18653 1.44135
thorax -13.5798 -1.21191 8.02072
lowerneck -12.7022 -6.52926 -4.66739
upperneck 20.287 -9.76467 4.50509
head 8.89206 -4.74245 1.1159
rclavicle 4.8286e-014 1.35174e-014
rhumerus 58.0861 58.0332 -28.1993
rradius 85.7707
rwrist 0.816021
rhand -2.84534 25.2014
rfingers 7.12502
rthumb 22.8624 -3.46339
lclavicle 4.8286e-014 1.35174e-014
lhumerus -15.1624 -66.9895 93.1292
lradius 51.9432
lwrist 79.1951
lhand 4.07177 30.8545
lfingers 7.12502
lthumb 29.4842 58.534
rfemur -42.4237 -4.06852 3.85085
rtibia 44.9499
rfoot 5.89405 -10.2843
rtoes -30.2537
lfemur -24.6889 40.6401 -34.7112
ltibia 62.2735
lfoot -42.5457 15.0641
ltoes 15.0466
